<svg width="413" height="680" viewBox="0 0 413 680" fill="none" xmlns="http://www.w3.org/2000/svg">
<rect width="413" height="680" fill="black"/>
<path d="M261.032 241.06C258.803 238.803 257.912 237.996 257.953 233.642C258.034 229.287 258.844 218.764 258.844 210.579C258.844 206.386 258.682 202.596 258.398 198.483C258.236 196.104 257.831 194.129 257.304 192.516C256.535 190.177 254.833 188.726 252.483 188.726C250.133 188.726 248.432 190.137 246.244 191.669C240.289 195.822 231.375 203.321 225.42 206.789C222.624 208.442 220.477 209.248 218.938 207.878C218.533 207.555 211.402 202.072 209.579 200.741C208.85 200.217 207.958 199.854 206.986 199.773C206.986 199.773 206.703 199.733 206.5 199.733C206.297 199.733 206.014 199.773 206.014 199.773C205.041 199.854 204.15 200.217 203.421 200.741C201.598 202.072 194.467 207.555 194.062 207.878C192.523 209.248 190.375 208.442 187.58 206.789C181.665 203.321 172.711 195.822 166.756 191.669C164.568 190.137 162.867 188.726 160.517 188.726C158.167 188.726 156.465 190.177 155.696 192.516C155.169 194.129 154.764 196.104 154.602 198.483C154.318 202.596 154.156 206.386 154.156 210.579C154.156 218.764 154.966 229.287 155.007 233.642C155.047 237.996 154.156 238.843 151.928 241.06C149.294 243.722 146.337 245.375 146.418 248.358C146.458 249.568 146.904 250.818 148.079 251.906C151.037 254.648 163.434 264.083 175.831 273.155C188.228 282.227 201.436 291.742 204.353 292.75C205.325 293.073 205.933 293.274 206.5 293.274C207.067 293.274 207.634 293.113 208.647 292.75C211.564 291.742 224.772 282.227 237.169 273.155C249.566 264.083 261.963 254.648 264.921 251.906C266.096 250.818 266.541 249.568 266.582 248.358C266.663 245.375 263.665 243.722 261.032 241.06ZM228.823 212.635C229.107 209.853 231.457 207.757 234.495 204.773C237.493 201.789 241.22 199.007 243.813 197.112C246.649 195.056 248.675 193.806 250.62 193.806C251.227 193.806 251.835 193.927 252.483 194.169C254.104 194.774 255.481 197.072 255.724 200.943C255.886 203.483 256.008 205.499 255.967 207.716C255.967 210.176 255.846 212.958 255.522 217.03C255.036 223.401 254.225 228.682 252.645 230.739C252.078 231.424 251.268 232.392 248.796 230.94C246.771 229.771 234.09 219.651 231.619 217.554C229.147 215.458 228.661 213.885 228.823 212.635ZM157.276 200.943C157.519 197.072 158.896 194.774 160.517 194.169C161.165 193.927 161.773 193.806 162.38 193.806C164.325 193.806 166.351 195.056 169.187 197.112C171.78 199.007 175.507 201.789 178.505 204.773C181.543 207.757 183.893 209.853 184.177 212.635C184.298 213.885 183.853 215.458 181.381 217.554C178.91 219.651 166.229 229.771 164.204 230.94C161.732 232.392 160.922 231.424 160.355 230.739C158.775 228.682 157.964 223.401 157.478 217.03C157.154 212.958 157.033 210.176 157.033 207.716C156.992 205.499 157.114 203.483 157.276 200.943ZM259.654 251.826C256.494 254.809 232.55 273.235 219.383 281.501C217.925 282.348 216.75 282.952 215.17 282.952C212.496 282.952 210.227 281.42 209.214 279.243C208.283 277.146 207.837 266.301 207.553 256.745C207.229 246.907 206.986 237.633 206.865 236.988C206.824 236.787 206.784 236.666 206.622 236.625C206.581 236.625 206.541 236.625 206.5 236.625C206.459 236.625 206.419 236.625 206.378 236.625C206.257 236.666 206.176 236.787 206.135 236.988C206.014 237.633 205.73 246.907 205.447 256.745C205.163 266.301 204.717 277.146 203.786 279.243C202.773 281.42 200.504 282.952 197.83 282.952C196.25 282.952 195.075 282.348 193.617 281.501C180.45 273.235 156.506 254.809 153.346 251.826C151.766 250.334 151.077 249.205 151.077 248.157C151.077 247.108 151.766 245.899 153.346 244.488C158.167 240.093 193.455 213.966 199.856 209.813C201.436 208.805 204.11 206.708 206.459 206.708C208.85 206.708 211.524 208.805 213.063 209.813C219.464 213.966 254.752 240.093 259.573 244.488C261.153 245.899 261.842 247.108 261.842 248.157C261.923 249.205 261.234 250.334 259.654 251.826Z" fill="#ECBA41"/>
<g clip-path="url(#clip0_7_56)">
<path d="M151.968 437.94C154.197 440.197 155.088 441.004 155.047 445.358C154.966 449.713 154.156 460.236 154.156 468.421C154.156 472.614 154.318 476.404 154.602 480.517C154.764 482.896 155.169 484.871 155.696 486.484C156.465 488.823 158.167 490.274 160.517 490.274C162.867 490.274 164.568 488.863 166.756 487.331C172.711 483.178 181.625 475.679 187.58 472.211C190.376 470.558 192.523 469.752 194.062 471.122C194.467 471.445 201.598 476.928 203.421 478.259C204.15 478.783 205.042 479.146 206.014 479.227C206.014 479.227 206.297 479.267 206.5 479.267C206.703 479.267 206.986 479.227 206.986 479.227C207.959 479.146 208.85 478.783 209.579 478.259C211.402 476.928 218.533 471.445 218.938 471.122C220.477 469.752 222.625 470.558 225.42 472.211C231.335 475.679 240.289 483.178 246.244 487.331C248.432 488.863 250.133 490.274 252.483 490.274C254.833 490.274 256.535 488.823 257.304 486.484C257.831 484.871 258.236 482.896 258.398 480.517C258.682 476.404 258.844 472.614 258.844 468.421C258.844 460.236 258.034 449.713 257.993 445.358C257.953 441.004 258.844 440.157 261.072 437.94C263.706 435.278 266.663 433.625 266.582 430.642C266.542 429.432 266.096 428.182 264.921 427.094C261.963 424.352 249.566 414.917 237.169 405.845C224.772 396.773 211.564 387.258 208.647 386.25C207.675 385.927 207.067 385.726 206.5 385.726C205.933 385.726 205.366 385.887 204.353 386.25C201.436 387.258 188.228 396.773 175.831 405.845C163.434 414.917 151.037 424.352 148.079 427.094C146.904 428.182 146.459 429.432 146.418 430.642C146.337 433.625 149.335 435.278 151.968 437.94ZM184.177 466.365C183.893 469.147 181.543 471.243 178.505 474.227C175.507 477.211 171.78 479.993 169.187 481.888C166.351 483.944 164.325 485.194 162.38 485.194C161.773 485.194 161.165 485.073 160.517 484.831C158.896 484.226 157.519 481.928 157.276 478.057C157.114 475.517 156.992 473.501 157.033 471.284C157.033 468.824 157.154 466.042 157.478 461.97C157.964 455.599 158.775 450.318 160.355 448.261C160.922 447.576 161.732 446.608 164.204 448.06C166.229 449.229 178.91 459.349 181.381 461.446C183.853 463.542 184.339 465.115 184.177 466.365ZM255.724 478.057C255.481 481.928 254.104 484.226 252.483 484.831C251.835 485.073 251.227 485.194 250.62 485.194C248.675 485.194 246.649 483.944 243.813 481.888C241.22 479.993 237.493 477.211 234.495 474.227C231.457 471.243 229.107 469.147 228.823 466.365C228.702 465.115 229.147 463.542 231.619 461.446C234.09 459.349 246.771 449.229 248.796 448.06C251.268 446.608 252.078 447.576 252.645 448.261C254.225 450.318 255.036 455.599 255.522 461.97C255.846 466.042 255.967 468.824 255.967 471.284C256.008 473.501 255.886 475.517 255.724 478.057ZM153.346 427.174C156.506 424.191 180.45 405.765 193.617 397.499C195.075 396.652 196.25 396.048 197.83 396.048C200.504 396.048 202.773 397.58 203.786 399.757C204.717 401.854 205.163 412.699 205.447 422.255C205.771 432.093 206.014 441.367 206.135 442.012C206.176 442.213 206.216 442.334 206.378 442.375C206.419 442.375 206.459 442.375 206.5 442.375C206.541 442.375 206.581 442.375 206.622 442.375C206.743 442.334 206.824 442.213 206.865 442.012C206.986 441.367 207.27 432.093 207.553 422.255C207.837 412.699 208.283 401.854 209.214 399.757C210.227 397.58 212.496 396.048 215.17 396.048C216.75 396.048 217.925 396.652 219.383 397.499C232.55 405.765 256.494 424.191 259.654 427.174C261.234 428.666 261.923 429.795 261.923 430.843C261.923 431.892 261.234 433.101 259.654 434.512C254.833 438.907 219.545 465.034 213.144 469.187C211.564 470.195 208.89 472.292 206.541 472.292C204.15 472.292 201.476 470.195 199.937 469.187C193.536 465.034 158.248 438.907 153.427 434.512C151.847 433.101 151.158 431.892 151.158 430.843C151.077 429.795 151.766 428.666 153.346 427.174Z" fill="#ECBA41"/>
</g>
<g clip-path="url(#clip1_7_56)">
<path d="M304.94 394.032C307.197 391.803 308.004 390.912 312.358 390.953C316.713 391.034 327.236 391.844 335.421 391.844C339.614 391.844 343.404 391.682 347.517 391.398C349.896 391.236 351.871 390.831 353.484 390.304C355.823 389.535 357.274 387.833 357.274 385.483C357.274 383.133 355.863 381.432 354.331 379.244C350.178 373.289 342.679 364.375 339.211 358.42C337.558 355.625 336.752 353.477 338.122 351.938C338.445 351.533 343.928 344.402 345.259 342.579C345.783 341.85 346.146 340.959 346.227 339.986C346.227 339.986 346.267 339.703 346.267 339.5C346.267 339.297 346.227 339.014 346.227 339.014C346.146 338.042 345.783 337.15 345.259 336.421C343.928 334.598 338.445 327.467 338.122 327.062C336.752 325.523 337.558 323.376 339.211 320.58C342.679 314.665 350.178 305.711 354.331 299.756C355.863 297.568 357.274 295.867 357.274 293.517C357.274 291.167 355.823 289.465 353.484 288.696C351.871 288.169 349.896 287.764 347.517 287.602C343.404 287.318 339.614 287.156 335.421 287.156C327.236 287.156 316.713 287.966 312.358 288.007C308.004 288.047 307.157 287.156 304.94 284.928C302.278 282.294 300.625 279.337 297.642 279.418C296.432 279.459 295.182 279.904 294.094 281.079C291.352 284.037 281.917 296.434 272.845 308.831C263.773 321.228 254.258 334.436 253.25 337.353C252.927 338.325 252.726 338.933 252.726 339.5C252.726 340.067 252.887 340.634 253.25 341.647C254.258 344.564 263.773 357.772 272.845 370.169C281.917 382.566 291.352 394.963 294.094 397.921C295.182 399.096 296.432 399.542 297.642 399.582C300.625 399.663 302.278 396.665 304.94 394.032ZM333.365 361.823C336.147 362.107 338.243 364.457 341.227 367.495C344.211 370.493 346.993 374.22 348.888 376.813C350.944 379.649 352.194 381.675 352.194 383.62C352.194 384.227 352.073 384.835 351.831 385.483C351.226 387.104 348.928 388.481 345.057 388.724C342.517 388.886 340.501 389.008 338.284 388.967C335.824 388.967 333.042 388.846 328.97 388.522C322.599 388.036 317.318 387.225 315.261 385.645C314.576 385.078 313.608 384.268 315.06 381.796C316.229 379.771 326.349 367.09 328.446 364.619C330.542 362.147 332.115 361.661 333.365 361.823ZM345.057 290.276C348.928 290.519 351.226 291.896 351.831 293.517C352.073 294.165 352.194 294.773 352.194 295.38C352.194 297.325 350.944 299.351 348.888 302.187C346.993 304.78 344.211 308.507 341.227 311.505C338.243 314.543 336.147 316.893 333.365 317.177C332.115 317.298 330.542 316.853 328.446 314.381C326.349 311.91 316.229 299.229 315.06 297.204C313.608 294.732 314.576 293.922 315.261 293.355C317.318 291.775 322.599 290.964 328.97 290.478C333.042 290.154 335.824 290.033 338.284 290.033C340.501 289.992 342.517 290.114 345.057 290.276ZM294.174 392.654C291.191 389.494 272.765 365.55 264.499 352.383C263.652 350.925 263.048 349.75 263.048 348.17C263.048 345.496 264.58 343.227 266.757 342.214C268.854 341.283 279.699 340.837 289.255 340.553C299.093 340.229 308.367 339.986 309.012 339.865C309.213 339.824 309.334 339.784 309.375 339.622C309.375 339.581 309.375 339.541 309.375 339.5C309.375 339.459 309.375 339.419 309.375 339.378C309.334 339.257 309.213 339.176 309.012 339.135C308.367 339.014 299.093 338.73 289.255 338.447C279.699 338.163 268.854 337.717 266.757 336.786C264.58 335.773 263.048 333.504 263.048 330.83C263.048 329.25 263.652 328.075 264.499 326.617C272.765 313.45 291.191 289.506 294.174 286.346C295.666 284.766 296.795 284.077 297.843 284.077C298.892 284.077 300.101 284.766 301.512 286.346C305.907 291.167 332.034 326.455 336.187 332.856C337.195 334.436 339.292 337.11 339.292 339.459C339.292 341.85 337.195 344.524 336.187 346.063C332.034 352.464 305.907 387.752 301.512 392.573C300.101 394.153 298.892 394.842 297.843 394.842C296.795 394.923 295.666 394.234 294.174 392.654Z" fill="#ECBA41"/>
</g>
<g clip-path="url(#clip2_7_56)">
<path d="M108.061 284.968C105.803 287.197 104.996 288.088 100.642 288.047C96.2872 287.966 85.7638 287.156 77.5789 287.156C73.3857 287.156 69.5957 287.318 65.4831 287.602C63.1042 287.764 61.1286 288.169 59.5158 288.696C57.1773 289.465 55.7258 291.167 55.7258 293.517C55.7258 295.867 57.137 297.568 58.6691 299.756C62.822 305.711 70.3214 314.625 73.7889 320.58C75.442 323.376 76.2484 325.523 74.8775 327.062C74.555 327.467 69.0715 334.598 67.741 336.421C67.2168 337.15 66.8539 338.042 66.7733 339.014C66.7733 339.014 66.733 339.297 66.733 339.5C66.733 339.703 66.7733 339.986 66.7733 339.986C66.8539 340.959 67.2168 341.85 67.741 342.579C69.0715 344.402 74.555 351.533 74.8775 351.938C76.2484 353.477 75.442 355.625 73.7889 358.42C70.3214 364.335 62.822 373.289 58.6691 379.244C57.1369 381.432 55.7258 383.133 55.7258 385.483C55.7258 387.833 57.1773 389.535 59.5158 390.304C61.1286 390.831 63.1042 391.236 65.4831 391.398C69.5957 391.682 73.3857 391.844 77.5789 391.844C85.7638 391.844 96.2872 391.034 100.642 390.993C104.996 390.953 105.843 391.844 108.06 394.072C110.722 396.706 112.375 399.663 115.358 399.582C116.568 399.542 117.818 399.096 118.906 397.921C121.648 394.963 131.083 382.566 140.155 370.169C149.227 357.772 158.742 344.564 159.75 341.647C160.073 340.675 160.274 340.067 160.274 339.5C160.274 338.933 160.113 338.366 159.75 337.353C158.742 334.436 149.227 321.228 140.155 308.831C131.083 296.434 121.648 284.037 118.906 281.079C117.818 279.904 116.568 279.459 115.358 279.418C112.375 279.337 110.722 282.335 108.061 284.968ZM79.6352 317.177C76.8532 316.893 74.7566 314.543 71.7729 311.505C68.7893 308.507 66.0072 304.78 64.1122 302.187C62.0559 299.351 60.806 297.325 60.806 295.38C60.806 294.773 60.927 294.165 61.1689 293.517C61.7737 291.896 64.0719 290.519 67.9426 290.276C70.4827 290.114 72.4987 289.992 74.7163 290.033C77.1758 290.033 79.9578 290.154 84.0301 290.478C90.4006 290.964 95.6824 291.775 97.7387 293.355C98.4241 293.922 99.3918 294.732 97.9403 297.204C96.771 299.229 86.6508 311.91 84.5542 314.381C82.4576 316.853 80.8851 317.339 79.6352 317.177ZM67.9426 388.724C64.0719 388.481 61.7737 387.104 61.1689 385.483C60.927 384.835 60.806 384.227 60.806 383.62C60.806 381.675 62.0559 379.649 64.1122 376.813C66.0072 374.22 68.7893 370.493 71.7729 367.495C74.7566 364.457 76.8532 362.107 79.6352 361.823C80.8851 361.702 82.4576 362.147 84.5542 364.619C86.6508 367.09 96.771 379.771 97.9403 381.796C99.3918 384.268 98.4241 385.078 97.7387 385.645C95.6824 387.225 90.4005 388.036 84.0301 388.522C79.9578 388.846 77.1757 388.967 74.7162 388.967C72.4987 389.008 70.4827 388.886 67.9426 388.724ZM118.826 286.346C121.809 289.506 140.235 313.45 148.501 326.617C149.348 328.075 149.952 329.25 149.952 330.83C149.952 333.504 148.42 335.773 146.243 336.786C144.146 337.717 133.301 338.163 123.745 338.447C113.907 338.771 104.633 339.014 103.988 339.135C103.787 339.176 103.666 339.216 103.625 339.378C103.625 339.419 103.625 339.46 103.625 339.5C103.625 339.541 103.625 339.581 103.625 339.622C103.666 339.743 103.787 339.824 103.988 339.865C104.633 339.986 113.907 340.27 123.745 340.553C133.301 340.837 144.146 341.283 146.243 342.214C148.42 343.227 149.952 345.496 149.952 348.17C149.952 349.75 149.348 350.925 148.501 352.383C140.235 365.55 121.809 389.494 118.826 392.654C117.334 394.234 116.205 394.923 115.157 394.923C114.108 394.923 112.899 394.234 111.488 392.654C107.093 387.833 80.9658 352.545 76.8129 346.144C75.8049 344.564 73.7083 341.89 73.7083 339.541C73.7083 337.15 75.8049 334.476 76.8129 332.937C80.9658 326.536 107.093 291.248 111.488 286.427C112.899 284.847 114.108 284.158 115.157 284.158C116.205 284.077 117.334 284.766 118.826 286.346Z" fill="#ECBA41"/>
</g>
<path d="M343 470.5C343 473.538 340.538 476 337.5 476C334.462 476 332 473.538 332 470.5C332 467.462 334.462 465 337.5 465C340.538 465 343 467.462 343 470.5Z" fill="#ECBA41"/>
<path fill-rule="evenodd" clip-rule="evenodd" d="M337.5 490C348.27 490 357 481.27 357 470.5C357 459.73 348.27 451 337.5 451C326.73 451 318 459.73 318 470.5C318 481.27 326.73 490 337.5 490ZM337.5 493C349.926 493 360 482.926 360 470.5C360 458.074 349.926 448 337.5 448C325.074 448 315 458.074 315 470.5C315 482.926 325.074 493 337.5 493Z" fill="#ECBA41"/>
<path d="M343 209.5C343 212.538 340.538 215 337.5 215C334.462 215 332 212.538 332 209.5C332 206.462 334.462 204 337.5 204C340.538 204 343 206.462 343 209.5Z" fill="#ECBA41"/>
<path fill-rule="evenodd" clip-rule="evenodd" d="M337.5 229C348.27 229 357 220.27 357 209.5C357 198.73 348.27 190 337.5 190C326.73 190 318 198.73 318 209.5C318 220.27 326.73 229 337.5 229ZM337.5 232C349.926 232 360 221.926 360 209.5C360 197.074 349.926 187 337.5 187C325.074 187 315 197.074 315 209.5C315 221.926 325.074 232 337.5 232Z" fill="#ECBA41"/>
<path d="M81 470.5C81 473.538 78.5376 476 75.5 476C72.4624 476 70 473.538 70 470.5C70 467.462 72.4624 465 75.5 465C78.5376 465 81 467.462 81 470.5Z" fill="#ECBA41"/>
<path fill-rule="evenodd" clip-rule="evenodd" d="M75.5 490C86.2696 490 95 481.27 95 470.5C95 459.73 86.2696 451 75.5 451C64.7304 451 56 459.73 56 470.5C56 481.27 64.7304 490 75.5 490ZM75.5 493C87.9264 493 98 482.926 98 470.5C98 458.074 87.9264 448 75.5 448C63.0736 448 53 458.074 53 470.5C53 482.926 63.0736 493 75.5 493Z" fill="#ECBA41"/>
<path d="M81 209.5C81 212.538 78.5376 215 75.5 215C72.4624 215 70 212.538 70 209.5C70 206.462 72.4624 204 75.5 204C78.5376 204 81 206.462 81 209.5Z" fill="#ECBA41"/>
<path fill-rule="evenodd" clip-rule="evenodd" d="M75.5 229C86.2696 229 95 220.27 95 209.5C95 198.73 86.2696 190 75.5 190C64.7304 190 56 198.73 56 209.5C56 220.27 64.7304 229 75.5 229ZM75.5 232C87.9264 232 98 221.926 98 209.5C98 197.074 87.9264 187 75.5 187C63.0736 187 53 197.074 53 209.5C53 221.926 63.0736 232 75.5 232Z" fill="#ECBA41"/>
<path d="M212 106.5C212 109.538 209.538 112 206.5 112C203.462 112 201 109.538 201 106.5C201 103.462 203.462 101 206.5 101C209.538 101 212 103.462 212 106.5Z" fill="#ECBA41"/>
<path fill-rule="evenodd" clip-rule="evenodd" d="M206.5 126C217.27 126 226 117.27 226 106.5C226 95.7304 217.27 87 206.5 87C195.73 87 187 95.7304 187 106.5C187 117.27 195.73 126 206.5 126ZM206.5 129C218.926 129 229 118.926 229 106.5C229 94.0736 218.926 84 206.5 84C194.074 84 184 94.0736 184 106.5C184 118.926 194.074 129 206.5 129Z" fill="#ECBA41"/>
<path d="M212 573.5C212 576.538 209.538 579 206.5 579C203.462 579 201 576.538 201 573.5C201 570.462 203.462 568 206.5 568C209.538 568 212 570.462 212 573.5Z" fill="#ECBA41"/>
<path fill-rule="evenodd" clip-rule="evenodd" d="M206.5 593C217.27 593 226 584.27 226 573.5C226 562.73 217.27 554 206.5 554C195.73 554 187 562.73 187 573.5C187 584.27 195.73 593 206.5 593ZM206.5 596C218.926 596 229 585.926 229 573.5C229 561.074 218.926 551 206.5 551C194.074 551 184 561.074 184 573.5C184 585.926 194.074 596 206.5 596Z" fill="#ECBA41"/>
<path d="M212 339.5C212 342.538 209.538 345 206.5 345C203.462 345 201 342.538 201 339.5C201 336.462 203.462 334 206.5 334C209.538 334 212 336.462 212 339.5Z" fill="#ECBA41"/>
<path fill-rule="evenodd" clip-rule="evenodd" d="M206.5 359C217.27 359 226 350.27 226 339.5C226 328.73 217.27 320 206.5 320C195.73 320 187 328.73 187 339.5C187 350.27 195.73 359 206.5 359ZM206.5 362C218.926 362 229 351.926 229 339.5C229 327.074 218.926 317 206.5 317C194.074 317 184 327.074 184 339.5C184 351.926 194.074 362 206.5 362Z" fill="#ECBA41"/>
<defs>
<clipPath id="clip0_7_56">
<rect width="123" height="106" fill="white" transform="translate(268 491) rotate(-180)"/>
</clipPath>
<clipPath id="clip1_7_56">
<rect width="123" height="106" fill="white" transform="translate(358 278) rotate(90)"/>
</clipPath>
<clipPath id="clip2_7_56">
<rect width="123" height="106" fill="white" transform="translate(55 401) rotate(-90)"/>
</clipPath>
</defs>
</svg>
